<svg width="800" height="800" viewBox="0 0 800 800" fill="none" xmlns="http://www.w3.org/2000/svg">
<path d="M396.708 144L507.559 208V336L396.708 400L285.857 336V208L396.708 144Z" fill="#383838"/>
<path d="M285.708 207.998L396.56 271.998V399.998L285.708 463.998L174.857 399.998V271.998L285.708 207.998Z" fill="#707070"/>
<path d="M174.851 272.001L285.703 336.001V464.001L174.851 528.001L64.0001 464.001V336.001L174.851 272.001Z" fill="#383838"/>
<path d="M507.411 207.998L618.262 271.998V399.998L507.411 463.998L396.56 399.998V271.998L507.411 207.998Z" fill="#707070"/>
<path d="M396.708 272L507.56 336V464L396.708 528L285.857 464V336L396.708 272Z" fill="#383838"/>
<path d="M285.708 336.002L396.56 400.002V528.002L285.708 592.002L174.857 528.002V400.002L285.708 336.002Z" fill="#707070"/>
<path d="M618.262 272L729.113 336V464L618.262 528L507.411 464V336L618.262 272Z" fill="#383838"/>
<path d="M507.411 335.998L618.262 399.998V527.998L507.411 591.998L396.56 527.998V399.998L507.411 335.998Z" fill="#707070"/>
<path d="M396.56 400.001L507.411 464.001V592.001L396.56 656.001L285.708 592.001V464.001L396.56 400.001Z" fill="#383838"/>
<mask id="path-10-outside-1_271_327" maskUnits="userSpaceOnUse" x="48" y="125" width="698" height="550" fill="black">
<rect fill="white" x="48" y="125" width="698" height="550"/>
<path fill-rule="evenodd" clip-rule="evenodd" d="M396.708 144L507.559 208V208.083L618.262 271.998L618.262 272L729.113 336V464L618.262 528L618.26 527.999L507.411 591.998L507.41 591.997V592.001L396.559 656.001L285.708 592.002L174.857 528.002V527.998L174.851 528.001L64 464.001V336.001L174.851 272.001L174.857 272.005V271.998L285.708 207.998L285.857 208.083V208L396.708 144Z"/>
</mask>
<path d="M507.559 208H523.559V198.762L515.559 194.144L507.559 208ZM396.708 144L404.708 130.144L396.708 125.525L388.708 130.144L396.708 144ZM507.559 208.083H491.559V217.321L499.559 221.939L507.559 208.083ZM618.262 271.998L634.218 273.194L634.969 263.168L626.262 258.141L618.262 271.998ZM618.262 272L602.307 270.803L601.555 280.829L610.262 285.856L618.262 272ZM729.113 336H745.113V326.762L737.113 322.144L729.113 336ZM729.113 464L737.113 477.856L745.113 473.238V464H729.113ZM618.262 528L610.279 541.866L618.273 546.469L626.262 541.856L618.262 528ZM618.26 527.999L626.244 514.133L618.249 509.53L610.26 514.142L618.26 527.999ZM507.411 591.998L499.179 605.717L507.255 610.563L515.411 605.854L507.411 591.998ZM507.41 591.997L515.642 578.277L491.41 563.738V591.997H507.41ZM507.41 592.001L515.41 605.858L523.41 601.239V592.001H507.41ZM396.559 656.001L388.559 669.858L396.559 674.476L404.559 669.858L396.559 656.001ZM285.708 592.002L277.708 605.859L277.708 605.859L285.708 592.002ZM174.857 528.002H158.857V537.24L166.857 541.859L174.857 528.002ZM174.857 527.998H190.857V500.274L166.852 514.145L174.857 527.998ZM174.851 528.001L166.851 541.858L174.855 546.479L182.856 541.855L174.851 528.001ZM64 464.001H48V473.239L56 477.858L64 464.001ZM64 336.001L56 322.145L48 326.764V336.001H64ZM174.851 272.001L182.856 258.148L174.855 253.524L166.851 258.145L174.851 272.001ZM174.857 272.005L166.852 285.858L190.857 299.729V272.005H174.857ZM174.857 271.998L166.857 258.141L158.857 262.76V271.998H174.857ZM285.708 207.998L293.708 194.141L285.708 189.522L277.708 194.141L285.708 207.998ZM285.857 208.083L277.857 221.94L301.857 235.796V208.083H285.857ZM285.857 208L277.857 194.144L269.857 198.762V208H285.857ZM515.559 194.144L404.708 130.144L388.708 157.856L499.559 221.856L515.559 194.144ZM523.559 208.083V208H491.559V208.083H523.559ZM626.262 258.141L515.559 194.227L499.559 221.939L610.262 285.854L626.262 258.141ZM634.217 273.197L634.218 273.194L602.307 270.801L602.307 270.803L634.217 273.197ZM737.113 322.144L626.262 258.144L610.262 285.856L721.113 349.856L737.113 322.144ZM745.113 464V336H713.113V464H745.113ZM626.262 541.856L737.113 477.856L721.113 450.144L610.262 514.144L626.262 541.856ZM610.277 541.865L610.279 541.866L626.246 514.134L626.244 514.133L610.277 541.865ZM515.411 605.854L626.26 541.855L610.26 514.142L499.411 578.141L515.411 605.854ZM499.179 605.717L499.179 605.717L515.643 578.278L515.642 578.277L499.179 605.717ZM491.41 591.997V592.001H523.41V591.997H491.41ZM499.41 578.145L388.559 642.145L404.559 669.858L515.41 605.858L499.41 578.145ZM404.559 642.145L293.708 578.146L277.708 605.859L388.559 669.858L404.559 642.145ZM166.857 541.859L277.708 605.859L293.708 578.146L182.857 514.146L166.857 541.859ZM158.857 527.998V528.002H190.857V527.998H158.857ZM182.856 541.855L182.862 541.852L166.852 514.145L166.846 514.148L182.856 541.855ZM56 477.858L166.851 541.858L182.851 514.145L72 450.145L56 477.858ZM48 336.001V464.001H80V336.001H48ZM166.851 258.145L56 322.145L72 349.858L182.851 285.858L166.851 258.145ZM182.862 258.151L182.856 258.148L166.846 285.855L166.852 285.858L182.862 258.151ZM158.857 271.998V272.005H190.857V271.998H158.857ZM277.708 194.141L166.857 258.141L182.857 285.854L293.708 221.854L277.708 194.141ZM293.857 194.227L293.708 194.141L277.708 221.854L277.857 221.94L293.857 194.227ZM269.857 208V208.083H301.857V208H269.857ZM388.708 130.144L277.857 194.144L293.857 221.856L404.708 157.856L388.708 130.144Z" fill="#272727" mask="url(#path-10-outside-1_271_327)"/>
<mask id="path-12-outside-2_271_327" maskUnits="userSpaceOnUse" x="48" y="125" width="698" height="550" fill="black">
<rect fill="white" x="48" y="125" width="698" height="550"/>
<path fill-rule="evenodd" clip-rule="evenodd" d="M396.708 144L507.559 208V208.083L618.262 271.998L618.262 272L729.113 336V464L618.262 528L618.26 527.999L507.411 591.998L507.41 591.997V592.001L396.559 656.001L285.708 592.002L174.857 528.002V527.998L174.851 528.001L64 464.001V336.001L174.851 272.001L174.857 272.005V271.998L285.708 207.998L285.857 208.083V208L396.708 144Z"/>
</mask>
<path d="M507.559 208H523.559V198.762L515.559 194.144L507.559 208ZM396.708 144L404.708 130.144L396.708 125.525L388.708 130.144L396.708 144ZM507.559 208.083H491.559V217.321L499.559 221.939L507.559 208.083ZM618.262 271.998L634.218 273.194L634.969 263.168L626.262 258.141L618.262 271.998ZM618.262 272L602.307 270.803L601.555 280.829L610.262 285.856L618.262 272ZM729.113 336H745.113V326.762L737.113 322.144L729.113 336ZM729.113 464L737.113 477.856L745.113 473.238V464H729.113ZM618.262 528L610.279 541.866L618.273 546.469L626.262 541.856L618.262 528ZM618.26 527.999L626.244 514.133L618.249 509.53L610.26 514.142L618.26 527.999ZM507.411 591.998L499.179 605.717L507.255 610.563L515.411 605.854L507.411 591.998ZM507.41 591.997L515.642 578.277L491.41 563.738V591.997H507.41ZM507.41 592.001L515.41 605.858L523.41 601.239V592.001H507.41ZM396.559 656.001L388.559 669.858L396.559 674.476L404.559 669.858L396.559 656.001ZM285.708 592.002L277.708 605.859L277.708 605.859L285.708 592.002ZM174.857 528.002H158.857V537.24L166.857 541.859L174.857 528.002ZM174.857 527.998H190.857V500.274L166.852 514.145L174.857 527.998ZM174.851 528.001L166.851 541.858L174.855 546.479L182.856 541.855L174.851 528.001ZM64 464.001H48V473.239L56 477.858L64 464.001ZM64 336.001L56 322.145L48 326.764V336.001H64ZM174.851 272.001L182.856 258.148L174.855 253.524L166.851 258.145L174.851 272.001ZM174.857 272.005L166.852 285.858L190.857 299.729V272.005H174.857ZM174.857 271.998L166.857 258.141L158.857 262.76V271.998H174.857ZM285.708 207.998L293.708 194.141L285.708 189.522L277.708 194.141L285.708 207.998ZM285.857 208.083L277.857 221.94L301.857 235.796V208.083H285.857ZM285.857 208L277.857 194.144L269.857 198.762V208H285.857ZM515.559 194.144L404.708 130.144L388.708 157.856L499.559 221.856L515.559 194.144ZM523.559 208.083V208H491.559V208.083H523.559ZM626.262 258.141L515.559 194.227L499.559 221.939L610.262 285.854L626.262 258.141ZM634.217 273.197L634.218 273.194L602.307 270.801L602.307 270.803L634.217 273.197ZM737.113 322.144L626.262 258.144L610.262 285.856L721.113 349.856L737.113 322.144ZM745.113 464V336H713.113V464H745.113ZM626.262 541.856L737.113 477.856L721.113 450.144L610.262 514.144L626.262 541.856ZM610.277 541.865L610.279 541.866L626.246 514.134L626.244 514.133L610.277 541.865ZM515.411 605.854L626.26 541.855L610.26 514.142L499.411 578.141L515.411 605.854ZM499.179 605.717L499.179 605.717L515.643 578.278L515.642 578.277L499.179 605.717ZM491.41 591.997V592.001H523.41V591.997H491.41ZM499.41 578.145L388.559 642.145L404.559 669.858L515.41 605.858L499.41 578.145ZM404.559 642.145L293.708 578.146L277.708 605.859L388.559 669.858L404.559 642.145ZM166.857 541.859L277.708 605.859L293.708 578.146L182.857 514.146L166.857 541.859ZM158.857 527.998V528.002H190.857V527.998H158.857ZM182.856 541.855L182.862 541.852L166.852 514.145L166.846 514.148L182.856 541.855ZM56 477.858L166.851 541.858L182.851 514.145L72 450.145L56 477.858ZM48 336.001V464.001H80V336.001H48ZM166.851 258.145L56 322.145L72 349.858L182.851 285.858L166.851 258.145ZM182.862 258.151L182.856 258.148L166.846 285.855L166.852 285.858L182.862 258.151ZM158.857 271.998V272.005H190.857V271.998H158.857ZM277.708 194.141L166.857 258.141L182.857 285.854L293.708 221.854L277.708 194.141ZM293.857 194.227L293.708 194.141L277.708 221.854L277.857 221.94L293.857 194.227ZM269.857 208V208.083H301.857V208H269.857ZM388.708 130.144L277.857 194.144L293.857 221.856L404.708 157.856L388.708 130.144Z" fill="#272727" mask="url(#path-12-outside-2_271_327)"/>
<g filter="url(#filter0_d_271_327)">
<path d="M396.56 144L507.411 208V336L396.56 400L285.708 336V208L396.56 144Z" fill="white"/>
</g>
<defs>
<filter id="filter0_d_271_327" x="177.708" y="36" width="437.702" height="472" filterUnits="userSpaceOnUse" color-interpolation-filters="sRGB">
<feFlood flood-opacity="0" result="BackgroundImageFix"/>
<feColorMatrix in="SourceAlpha" type="matrix" values="0 0 0 0 0 0 0 0 0 0 0 0 0 0 0 0 0 0 127 0" result="hardAlpha"/>
<feOffset/>
<feGaussianBlur stdDeviation="54"/>
<feComposite in2="hardAlpha" operator="out"/>
<feColorMatrix type="matrix" values="0 0 0 0 1 0 0 0 0 1 0 0 0 0 1 0 0 0 1 0"/>
<feBlend mode="normal" in2="BackgroundImageFix" result="effect1_dropShadow_271_327"/>
<feBlend mode="normal" in="SourceGraphic" in2="effect1_dropShadow_271_327" result="shape"/>
</filter>
</defs>
</svg>
