<svg width="64" height="64" viewBox="0 0 64 64" fill="none" xmlns="http://www.w3.org/2000/svg">
<g clip-path="url(#clip0_1027_3)">
<path d="M54.4866 48.5085C54.7725 48.3718 58.7467 42.4943 60.6981 39.5726L61.831 38.9222L62.3187 37.8214L61.869 35.976L60.5827 34.7477L51.6922 32.5682L51.856 32.1986L52.5706 31.8568L52.9364 31.0311L51.7594 30.5097L52.3605 29.7883L51.8372 29.0627L52.142 28.3746L52.6128 28.5832L53.4663 26.6567L52.407 26.1874L52.1021 26.8754L51.5136 26.6147L51.8184 25.9267L50.9945 25.5617L50.263 27.213L50.7296 27.7489L50.5467 28.1617L48.3418 29.3249L38.0849 26.098L38.5726 24.9971L38.1102 24.1339L39.5123 20.9689L37.9822 20.291L36.4624 23.4039L29.212 27.0572L28.6013 27.1644L16.2089 24.3083L16.3842 23.9125L3.17549 20.6744C2.171 22.2779 1.94664 23.1194 2.17901 24.513L14.7458 27.6109L15.0506 26.9229L18.4724 27.7803L17.9111 30.0008L22.2787 30.948L21.5472 32.5993L17.4759 31.6188L16.984 33.047L18.5057 34.3796L26.8311 35.9278L28.0334 34.485L32.3968 35.7596L33.9789 46.1727L36.3161 48.525L40.5644 48.5963L40.0342 49.3491L44.0192 52.4313L50.5922 42.9971L51.561 45.8955L50.7244 46.5126L52.2986 48.3623L54.4866 48.5085Z" fill="white"/>
</g>
<defs>
<clipPath id="clip0_1027_3">
<rect width="64" height="64" fill="white"/>
</clipPath>
</defs>
</svg>
