<svg width="64" height="64" viewBox="0 0 64 64" fill="none" xmlns="http://www.w3.org/2000/svg">
<path d="M42.7265 24.6248L43.1552 24.7885L43.7352 25.0269L44.6942 25.6976L44.7075 25.7119L45.6397 26.7491L46.2905 27.6217L46.2926 27.6244L46.2966 27.6299L46.7487 28.4734L46.9781 29.0229L47.1435 29.4232L47.1465 29.4302L47.4696 30.4872L47.52 30.494L47.5432 30.0627L47.5805 29.3714L47.5205 28.3699L47.3494 27.0657L46.9185 25.6069L46.2157 24.1747L45.6748 23.0861L45.3155 22.2375L44.86 21.3906L44.1169 20.6451L42.8965 19.4246L42.7737 19.3036L42.4748 19.2948L41.7667 19.2236L41.2241 19.0332L40.2847 17.9142L39.92 16.877L39.8791 16.4073L38.4718 15L38.116 15.0142L37.2549 15.765L37.1019 15.9198L36.3832 16.6386L35.6306 17.4996L35.6164 17.8537L37.0254 19.2627L37.4933 19.3019L38.5697 19.6879L39.7243 20.5935L40.1922 21.3799L40.0339 21.9314L39.7208 22.9117L37.3154 25.5412L32.4638 30.3857L29.4144 32.823L29.5108 32.9208L29.7563 33.1645L29.7863 33.1967L30.1813 33.5917L30.6865 34.0969L31.174 34.5826L31.5863 34.9953L31.863 35.2712L34.2928 32.2128L39.1279 27.3521L41.7521 24.9432L42.7265 24.6248Z" fill="white"/>
<path d="M16.5091 46.0985L16.7848 46.3743L17.2686 46.8593L17.4662 47.0557L18.4518 48.0431L18.9144 48.4398L19.071 48.422L19.2115 48.3259L20.0851 47.2941L20.8216 46.4276L31.8858 35.3937L31.8945 35.3031L31.863 35.2712L31.5863 34.9953L31.174 34.5826L30.6865 34.0969L30.1813 33.5917L29.7863 33.1967L29.5108 32.9208L29.4144 32.823L29.386 32.7946L29.2846 32.7928L18.1972 43.8037L17.2703 44.4815L16.105 45.2216L16.0142 45.3675L16 45.5258L16.4216 46.0115L16.5091 46.0985Z" fill="white"/>
</svg>
