<svg width="64" height="64" viewBox="0 0 64 64" fill="none" xmlns="http://www.w3.org/2000/svg">
<path d="M28.9545 37.4545V37.3182C28.9697 35.8712 29.1212 34.7197 29.4091 33.8636C29.697 33.0076 30.1061 32.3144 30.6364 31.7841C31.1667 31.2538 31.803 30.7652 32.5455 30.3182C32.9924 30.0455 33.3939 29.7235 33.75 29.3523C34.1061 28.9735 34.3864 28.5379 34.5909 28.0455C34.803 27.553 34.9091 27.0076 34.9091 26.4091C34.9091 25.6667 34.7348 25.0227 34.3864 24.4773C34.0379 23.9318 33.572 23.5114 32.9886 23.2159C32.4053 22.9205 31.7576 22.7727 31.0455 22.7727C30.4242 22.7727 29.8258 22.9015 29.25 23.1591C28.6742 23.4167 28.1932 23.822 27.8068 24.375C27.4205 24.928 27.197 25.6515 27.1364 26.5455H24.2727C24.3333 25.2576 24.6667 24.1553 25.2727 23.2386C25.8864 22.322 26.6932 21.6212 27.6932 21.1364C28.7008 20.6515 29.8182 20.4091 31.0455 20.4091C32.3788 20.4091 33.5379 20.6742 34.5227 21.2045C35.5152 21.7348 36.2803 22.4621 36.8182 23.3864C37.3636 24.3106 37.6364 25.3636 37.6364 26.5455C37.6364 27.3788 37.5076 28.1326 37.25 28.8068C37 29.4811 36.6364 30.0833 36.1591 30.6136C35.6894 31.1439 35.1212 31.6136 34.4545 32.0227C33.7879 32.4394 33.2538 32.8788 32.8523 33.3409C32.4508 33.7955 32.1591 34.3371 31.9773 34.9659C31.7955 35.5947 31.697 36.3788 31.6818 37.3182V37.4545H28.9545ZM30.4091 44.1818C29.8485 44.1818 29.3674 43.9811 28.9659 43.5795C28.5644 43.178 28.3636 42.697 28.3636 42.1364C28.3636 41.5758 28.5644 41.0947 28.9659 40.6932C29.3674 40.2917 29.8485 40.0909 30.4091 40.0909C30.9697 40.0909 31.4508 40.2917 31.8523 40.6932C32.2538 41.0947 32.4545 41.5758 32.4545 42.1364C32.4545 42.5076 32.3598 42.8485 32.1705 43.1591C31.9886 43.4697 31.7424 43.7197 31.4318 43.9091C31.1288 44.0909 30.7879 44.1818 30.4091 44.1818Z" fill="white"/>
</svg>
