<svg width="64" height="64" viewBox="0 0 64 64" fill="none" xmlns="http://www.w3.org/2000/svg">
<path d="M21.0263 40.6421L20.9502 40.5971L20.4399 40.2958L19.9605 40.0126L19.4503 39.7113L19.1181 39.5151L19.1119 39.5016L18.8641 38.9633L18.6162 38.4251L18.3684 37.8868L18.1205 37.3485L17.8727 36.8103L17.6248 36.272L17.3873 35.7563L17.3732 35.1639L17.3592 34.5715L17.3451 33.979L17.331 33.3866L17.3274 33.2368L17.3215 33.231L16.9025 33.65L16.7871 33.7654L16.7251 34.3547L16.663 34.944L16.6009 35.5334L16.5389 36.1227L16.4849 36.6354L16.588 37.2189L16.6911 37.8025L16.7943 38.386L16.8974 38.9696L17.0005 39.5532L17.1036 40.1367L17.2068 40.7203L17.3056 41.2797L17.3295 41.3037L17.7486 41.7227L17.9875 41.9616L17.8447 42.5367L17.7019 43.1119L17.6584 43.2871L17.2394 43.7062L16.8204 44.1252L16.4014 44.5443L15.9823 44.9633L15.5633 45.3823L15.1442 45.8013L14.7252 46.2203L14.3062 46.6394L13.8872 47.0584L13.4681 47.4774L13.0491 47.8964L12.6301 48.3155L12.2111 48.7345L11.7921 49.1535L11.373 49.5726L10.954 49.9916L10.535 50.4106L10.1159 50.8297L9.9981 50.9475L9.46382 51.2039L8.92954 51.4602L8.39526 51.7166L8.08249 51.8666L7.80883 52.3922L7.53517 52.9178L7.26145 53.4435L7 53.9456L7.01659 53.9622L7.43567 54.3812L7.8547 54.8002L8.11336 55.0589L8.14655 55.0921L8.56563 55.5111L8.98465 55.9302L9.25991 56.2055L9.78554 55.9318L10.3111 55.6581L10.8367 55.3844L11.3388 55.123L11.5952 54.5887L11.8516 54.0544L12.1079 53.5201L12.258 53.2074L12.677 52.7884L13.096 52.3693L13.5151 51.9503L13.9341 51.5313L14.3531 51.1123L14.7722 50.6932L15.1912 50.2742L15.6102 49.8552L16.0292 49.4362L16.4482 49.0171L16.8673 48.5981L17.2863 48.1791L17.7053 47.7601L18.1243 47.3411L18.5433 46.922L18.9624 46.503L19.3814 46.0839L19.8005 45.6649L19.9183 45.547L20.4935 45.4043L21.0686 45.2615L21.2439 45.218L21.6629 45.637L21.9018 45.8759L21.9257 45.8999L22.5093 46.003L23.0929 46.1061L23.6764 46.2092L24.26 46.3123L24.8435 46.4155L25.4271 46.5186L26.0106 46.6217L26.5701 46.7206L27.1594 46.6585L27.7487 46.5965L28.3381 46.5344L28.9274 46.4723L29.4401 46.4183L29.8591 45.9993L29.9745 45.8839L29.9687 45.8781L29.3762 45.864L28.7838 45.8499L28.1913 45.8358L27.5989 45.8217L27.4491 45.8182L26.9109 45.5703L26.3726 45.3225L25.8343 45.0746L25.2961 44.8268L24.7578 44.5789L24.2195 44.331L23.7039 44.0936" fill="white"/>
<path d="M18.0114 41.9856L18.4304 42.4046L18.8494 42.8236L19.2684 43.2427L19.6396 43.6137L19.2168 44.0291L18.8049 44.4338L18.3859 44.8528L17.9669 45.2718L17.5478 45.6908L17.1288 46.1099L16.7098 46.5289L16.2908 46.9479L15.8718 47.3669L15.4527 47.786L15.0337 48.205L14.6146 48.624L14.1956 49.0431L13.7766 49.4621L13.3576 49.8811L12.9385 50.3001L12.5195 50.7192L12.1005 51.1382L11.6815 51.5572L11.2625 51.9762L11.1446 52.0941L10.7277 52.5153L10.3109 52.9365L9.89404 53.3577L9.73457 53.5187L9.3136 53.9358L8.89262 54.3529L8.4717 54.77L8.14648 55.0921" fill="white"/>
<path d="M18.0114 41.9856L17.8649 42.5598L17.7183 43.134L17.675 43.3038L17.256 43.7228L16.837 44.1419L16.418 44.5609L15.9989 44.9799L15.5799 45.3989L15.1609 45.8179L14.7419 46.237L14.3228 46.656L13.9038 47.075L13.4847 47.494L13.0657 47.9131L12.6467 48.3321L12.2277 48.7512L11.8087 49.1702L11.3896 49.5892L10.9706 50.0082L10.5516 50.4273L10.1326 50.8463L10.0147 50.9641L9.48161 51.2229L8.94851 51.4818L8.41542 51.7406L8.10644 51.8906L7.83058 52.415L7.55468 52.9395L7.27877 53.4639L7.0166 53.9622" fill="white"/>
<path d="M17.3279 33.2368L16.9089 33.6558L16.7935 33.7713L16.7327 34.3607L16.6719 34.9502L16.6112 35.5396L16.5505 36.1291L16.4971 36.6471L16.6014 37.2304L16.7058 37.8137L16.8101 38.3971L16.9144 38.9804L17.0188 39.5637L17.1231 40.147L17.2275 40.7304L17.33 41.3037L17.749 41.7227L18.0119 41.9856L17.988 41.9616L17.569 41.5426L17.3061 41.2797" fill="white"/>
<path d="M23.1999 43.2384L23.619 42.8194L24.038 42.4004L24.3794 42.059L24.7854 41.6274L25.1913 41.1957L25.5974 40.7641L26.0034 40.3324L26.4094 39.9007L26.8154 39.4691L27.2214 39.0375L27.6274 38.6058L28.0334 38.1742L28.4394 37.7425L28.8454 37.3108L29.2514 36.8792L29.6574 36.4475L30.0634 36.0159L30.4694 35.5842L30.8754 35.1525L31.2814 34.7209L31.6875 34.2892L32.0537 33.8997L32.4869 33.4953L32.9199 33.0908L33.353 32.6863L33.7861 32.2818L34.2191 31.8773L34.6522 31.4728L35.0853 31.0683L35.5183 30.6638L35.9514 30.2593L36.3845 29.8548L36.8176 29.4504L37.2507 29.0459L37.6837 28.6414L38.1168 28.2369L38.5499 27.8324L38.9829 27.4279L39.4005 27.0379L39.8195 26.6189L40.2385 26.1999L40.6575 25.7809L41.0766 25.3618L41.4956 24.9428L41.9146 24.5238L42.3336 24.1048L42.7526 23.6857L43.1717 23.2667L43.5907 22.8476L44.0098 22.4286L44.4288 22.0096L44.8478 21.5906L45.2668 21.1716L45.6859 20.7525L46.1049 20.3335L46.5239 19.9145L46.9429 19.4955L47.3619 19.0764L47.781 18.6574L48.2 18.2384L48.619 17.8193L49.038 17.4003L49.4571 16.9813L49.7715 16.6668L50.1402 16.2028L50.5089 15.7389L50.8775 15.275L51.2462 14.811L51.6148 14.347L51.9835 13.883L52.3521 13.4191L52.5155 13.2134L52.8842 12.7495L53.2528 12.2855L53.6215 11.8215L53.9902 11.3576L54.3588 10.8936L54.7275 10.4296L55.0961 9.96563L55.2595 9.76006L55.4517 9.19947L55.6439 8.63893L55.8361 8.0784L56.0284 7.51787L56.2059 7L55.6454 7.19224L55.0848 7.38447L54.5243 7.57671L53.9637 7.76895L53.4459 7.94649L52.982 8.31514L52.518 8.68379L52.054 9.05244L51.5901 9.4211L51.1261 9.78975L50.6622 10.1584L50.1982 10.5271L49.9926 10.6904L49.5286 11.0591L49.0646 11.4277L48.6007 11.7964L48.1367 12.165L47.6728 12.5337L47.2088 12.9023L46.7448 13.271L46.5391 13.4344L46.1201 13.8535L45.7011 14.2725L45.2821 14.6915L44.863 15.1105L44.444 15.5295L44.025 15.9486L43.606 16.3676L43.187 16.7866L42.7679 17.2057L42.3489 17.6247L41.9299 18.0437L41.5108 18.4628L41.0918 18.8818L40.6728 19.3008L40.2537 19.7198L39.8347 20.1388L39.4157 20.5579L38.9967 20.9769L38.5777 21.3959L38.1586 21.8149L37.7396 22.234L37.3206 22.653L36.9016 23.072L36.4825 23.4911L36.1681 23.8055L35.7635 24.2386L35.359 24.6716L34.9546 25.1048L34.5501 25.5378L34.1456 25.9709L33.7411 26.404L33.3366 26.837L32.9321 27.2701L32.5276 27.7032L32.1231 28.1362L31.7186 28.5693L31.3141 29.0024L30.9097 29.4355L30.5052 29.8686L30.1007 30.3016L29.6962 30.7347L29.3062 31.1522L28.8745 31.5582L28.4429 31.9642L28.0112 32.3703L27.5796 32.7762L27.148 33.1822L26.7163 33.5883L26.2846 33.9943L25.853 34.4002L25.4213 34.8063L24.9897 35.2123L24.558 35.6183L24.1263 36.0243L23.6947 36.4303L23.263 36.8363L22.8314 37.2423L22.3998 37.6483L21.968 38.0543L21.5364 38.4603L21.147 38.8266L20.7279 39.2456L20.3089 39.6647L19.9676 40.006L19.9609 40.0126" fill="white"/>
<path d="M23.7139 44.1113L23.7035 44.0936L23.4024 43.5831L23.1991 43.2384L22.898 42.728L22.597 42.2175L22.5908 42.207" fill="white"/>
<path d="M22.3771 39.2759L21.9604 39.6973L21.5438 40.1187L21.1272 40.5401L21.0264 40.6421" fill="white"/>
<path d="M29.9741 45.884L29.3816 45.8712L28.7892 45.8585L28.1967 45.8457L27.6042 45.8329L27.4604 45.8298L26.9217 45.5828L26.3831 45.3357L25.8445 45.0886L25.3059 44.8416L24.7672 44.5945L24.2286 44.3474L23.7139 44.1113" fill="white"/>
<path d="M19.9675 40.0061L19.4571 39.705L19.1123 39.5017" fill="white"/>
<path d="M21.2441 45.218L21.6632 45.637L21.9021 45.876" fill="white"/>
</svg>
