<svg width="64" height="64" viewBox="0 0 64 64" fill="none" xmlns="http://www.w3.org/2000/svg">
<path d="M43.1353 26.0909L43.1535 26.1162L44.1458 25.0867L47.2039 20.2015L47.0269 19.956L46.7299 19.5443L42.4005 22.6668L42.0799 24.6275L42.9765 25.8707L43.1353 26.0909Z" fill="white"/>
<path d="M42.9765 25.8707L42.0799 24.6275L40.4355 22.3475L40.4065 22.3074L40.7536 20.3834L45.0809 17.2615L44.6078 16.6055L43.1009 16.4222L41.6705 16.4924L40.1925 17.0502L38.9347 17.8614L37.9077 18.8427L37.5642 19.5315L37.0235 21.1L36.1463 23.4578L35.1031 25.8151L17.4489 43.465L17.3409 43.9064L17.4276 44.0278L19.0072 46.2164L19.1029 46.3504L19.5565 46.3873L37.372 28.9609L39.3829 27.8898L41.5373 27.3586L42.6685 26.7092L42.7412 26.8111L42.7155 26.9194L42.7769 27.0032L42.8859 27.0118L42.9655 27.1209L42.9388 27.229L43.0012 27.3131L43.1102 27.3216L43.2647 27.5371L43.868 27.1081L42.9765 25.8707Z" fill="white"/>
</svg>
